<?xml version="1.0" encoding="UTF-8" standalone="no"?>
<!DOCTYPE svg PUBLIC "-//W3C//DTD SVG 1.1//EN" "http://www.w3.org/Graphics/SVG/1.1/DTD/svg11.dtd">
<!-- Created with Vectornator (http://vectornator.io/) -->
<svg height="100%" stroke-miterlimit="10" style="fill-rule:nonzero;clip-rule:evenodd;stroke-linecap:round;stroke-linejoin:round;" version="1.1" viewBox="0 0 1920 800" width="100%" xml:space="preserve" xmlns="http://www.w3.org/2000/svg" xmlns:vectornator="http://vectornator.io" xmlns:xlink="http://www.w3.org/1999/xlink">
<defs>
<filter color-interpolation-filters="sRGB" filterUnits="userSpaceOnUse" height="564.862" id="Filter" width="1738.87" x="109.703" y="186.69">
<feDropShadow dx="13.885" dy="18.9084" flood-color="#000000" flood-opacity="0.333" in="SourceGraphic" result="Shadow" stdDeviation="25"/>
</filter>
</defs>
<g id="图层-1" vectornator:layerName="图层 1">
<g fill="#84bae0" filter="url(#Filter)" stroke="none" vectornator:shadowAngle="0.9374" vectornator:shadowColor="#000000" vectornator:shadowOffset="23.4589" vectornator:shadowOpacity="0.333" vectornator:shadowRadius="50">
<path d="M395.669 566.851C403.227 567.271 409.84 569.265 415.508 572.834C421.177 576.403 425.796 580.707 429.365 585.746C432.934 590.785 435.033 596.558 435.663 603.066C436.293 609.575 434.928 616.188 431.569 622.906C430.309 625.845 427.685 629.309 423.696 633.298C419.707 637.287 416.033 639.702 412.674 640.541C385.801 648.519 358.193 653.453 329.851 655.343C301.508 657.232 273.481 656.707 245.768 653.768C237.79 652.928 229.077 652.088 219.63 651.249C210.182 650.409 201.89 647.68 194.751 643.061C181.735 634.663 175.227 622.696 175.227 607.16L175.227 338.851C170.608 335.492 166.829 331.293 163.89 326.254C160.95 321.215 159.166 315.862 158.536 310.193C157.906 304.525 158.641 299.066 160.74 293.818C162.84 288.569 166.409 284.055 171.448 280.276C179.845 273.558 189.503 269.044 200.42 266.735C211.337 264.425 222.044 262.431 232.541 260.751C254.376 257.392 276.21 255.713 298.044 255.713C319.878 255.713 342.133 255.503 364.807 255.083C371.525 255.083 379.293 254.558 388.11 253.508C396.928 252.459 404.696 253.193 411.414 255.713C419.392 258.652 425.691 263.271 430.309 269.569C434.928 275.867 437.657 282.586 438.497 289.724C439.337 296.862 437.972 303.79 434.403 310.508C430.834 317.227 424.641 322.475 415.823 326.254C405.326 330.453 394.094 332.343 382.127 331.923C370.16 331.503 358.718 331.293 347.801 331.293C331.845 331.293 315.89 331.503 299.934 331.923C283.978 332.343 268.022 333.602 252.066 335.702L252.066 423.249C267.182 424.088 282.298 424.088 297.414 423.249C312.53 422.409 327.646 421.359 342.762 420.099C349.481 419.68 356.199 419.05 362.917 418.21C369.635 417.37 376.564 417.37 383.702 418.21C392.939 419.47 400.077 423.249 405.116 429.547C410.155 435.845 413.199 442.878 414.249 450.646C415.298 458.414 413.934 466.077 410.155 473.635C406.376 481.193 400.287 486.652 391.89 490.011C384.751 492.95 375.094 495.155 362.917 496.624C350.74 498.094 337.934 499.144 324.497 499.773C311.061 500.403 297.834 500.718 284.818 500.718C271.801 500.718 260.884 500.508 252.066 500.088L252.066 577.558C275.16 580.497 298.464 580.917 321.978 578.818C345.492 576.718 368.586 572.729 391.26 566.851L395.669 566.851Z"/>
<path d="M572.022 629.204C570.762 639.702 566.354 648.309 558.796 655.028C551.238 661.746 543.05 666.05 534.232 667.939C525.414 669.829 517.331 668.884 509.983 665.105C502.635 661.326 498.751 653.768 498.331 642.431C496.232 594.144 495.182 544.072 495.182 492.215C495.182 440.359 495.182 388.818 495.182 337.591C488.464 335.072 483.425 331.293 480.066 326.254C476.707 321.215 474.713 315.652 474.083 309.564C473.453 303.475 474.188 297.282 476.287 290.983C478.387 284.685 481.536 279.227 485.735 274.608C490.354 269.569 496.652 264.95 504.63 260.751C512.608 256.552 521.32 252.669 530.768 249.099C540.215 245.53 549.558 242.486 558.796 239.967C568.033 237.448 575.801 235.558 582.099 234.298C608.552 228.84 635.215 228.945 662.088 234.613C688.961 240.282 712.58 250.464 732.945 265.16C753.309 279.856 768.53 298.961 778.608 322.475C788.685 345.989 789.735 372.862 781.757 403.094C779.238 411.492 776.088 419.89 772.309 428.287C768.53 436.685 764.122 444.453 759.083 451.591C751.945 462.508 743.547 472.166 733.89 480.564C724.232 488.961 713.735 496.729 702.398 503.867C710.376 512.265 717.934 521.083 725.072 530.32C732.21 539.558 740.188 547.956 749.006 555.514C752.365 558.453 757.298 563.072 763.807 569.37C770.315 575.669 776.613 582.387 782.702 589.525C788.79 596.663 794.144 603.696 798.762 610.624C803.381 617.552 805.481 623.326 805.061 627.945C804.641 635.923 802.436 643.166 798.448 649.674C794.459 656.182 789.63 661.221 783.961 664.79C778.293 668.359 772.099 670.144 765.381 670.144C758.663 670.144 751.945 667.834 745.227 663.215C737.669 657.337 730.53 650.409 723.812 642.431C717.094 634.453 710.586 627.105 704.287 620.387C690.431 605.271 676.89 590.05 663.663 574.724C650.436 559.398 636.895 544.387 623.039 529.691C614.641 531.37 606.138 532.525 597.53 533.155C588.923 533.785 580.42 534.519 572.022 535.359L572.022 624.796L572.022 629.204ZM684.762 324.365C667.967 314.287 649.597 308.619 629.652 307.359C609.707 306.099 590.497 308.829 572.022 315.547L572.022 457.89C590.917 456.63 609.497 454.215 627.762 450.646C646.028 447.077 662.928 439.204 678.464 427.028C686.862 420.309 693.685 412.436 698.934 403.409C704.182 394.381 707.331 385.144 708.381 375.696C709.431 366.249 708.171 357.011 704.602 347.983C701.033 338.956 694.42 331.083 684.762 324.365Z"/>
<path d="M1024.24 578.818C1035.16 579.238 1044.19 582.492 1051.33 588.58C1058.46 594.669 1063.08 601.702 1065.18 609.68C1067.28 617.657 1066.65 625.53 1063.29 633.298C1059.93 641.066 1053.01 647.05 1042.51 651.249C1034.95 654.188 1026.03 656.077 1015.74 656.917C1005.45 657.757 995.166 658.072 984.878 657.862C974.591 657.652 965.039 657.232 956.221 656.602C947.403 655.972 940.685 655.657 936.066 655.657L898.906 655.657C890.088 655.657 882.53 653.243 876.232 648.414C869.934 643.586 865.42 637.812 862.691 631.094C859.961 624.376 859.331 617.238 860.801 609.68C862.271 602.122 866.155 595.193 872.453 588.895C878.331 583.017 886.099 579.657 895.757 578.818C905.414 577.978 915.072 577.978 924.729 578.818L924.729 329.403C915.072 329.403 906.044 329.298 897.646 329.088C889.249 328.878 880.851 325.834 872.453 319.956C866.155 315.337 861.956 309.983 859.856 303.895C857.757 297.807 857.442 291.718 858.912 285.63C860.381 279.541 863.215 273.768 867.414 268.309C871.613 262.851 876.862 258.862 883.16 256.343C889.039 253.823 895.127 252.564 901.425 252.564C922.84 252.564 944.359 252.459 965.983 252.249C987.608 252.039 1009.34 252.144 1031.17 252.564C1033.27 252.564 1035.27 253.193 1037.15 254.453C1039.04 255.713 1041.04 256.762 1043.14 257.602C1052.8 263.061 1059.3 270.829 1062.66 280.906C1066.02 290.983 1064.76 300.851 1058.88 310.508C1055.94 315.547 1052.27 319.431 1047.86 322.16C1043.45 324.89 1038.62 326.779 1033.38 327.829C1028.13 328.878 1022.77 329.403 1017.31 329.403C1011.86 329.403 1006.61 329.403 1001.57 329.403L1001.57 580.077C1004.93 580.077 1007.97 579.972 1010.7 579.762C1013.43 579.552 1016.48 579.238 1019.83 578.818L1024.24 578.818Z"/>
<path d="M1458.2 626.685C1456.94 635.923 1453.79 643.796 1448.75 650.304C1443.71 656.812 1437.94 661.326 1431.43 663.845C1424.92 666.365 1417.99 666.68 1410.65 664.79C1403.3 662.901 1396.48 657.967 1390.18 649.989C1384.72 643.271 1381.67 635.818 1381.04 627.63C1380.41 619.442 1379.26 611.359 1377.58 603.381C1373.38 580.287 1367.29 556.564 1359.31 532.21C1333.28 532.63 1307.46 532.84 1281.85 532.84C1256.23 532.84 1230.62 533.05 1205.01 533.47C1201.23 544.387 1197.97 555.514 1195.24 566.851C1192.51 578.188 1189.89 589.315 1187.37 600.232C1185.27 608.63 1183.38 617.343 1181.7 626.37C1180.02 635.398 1176.24 643.271 1170.36 649.989C1163.23 658.387 1155.56 663.11 1147.38 664.16C1139.19 665.21 1131.84 663.845 1125.33 660.066C1118.82 656.287 1113.57 650.514 1109.59 642.746C1105.6 634.978 1104.23 626.055 1105.49 615.978C1106.75 602.961 1109.27 590.155 1113.05 577.558C1116.83 564.961 1120.4 552.365 1123.76 539.768C1142.65 467.547 1167.01 397.635 1196.82 330.033C1199.34 324.155 1201.96 318.486 1204.69 313.028C1207.42 307.569 1210.04 302.11 1212.56 296.652C1215.5 290.773 1218.44 284.475 1221.38 277.757C1224.32 271.039 1227.78 264.845 1231.77 259.177C1235.76 253.508 1240.49 248.68 1245.94 244.691C1251.4 240.702 1258.12 238.707 1266.1 238.707C1276.6 238.707 1285.41 242.066 1292.55 248.785C1321.1 277.337 1344.62 309.564 1363.09 345.464C1381.57 381.365 1398.15 418 1412.85 455.37C1421.67 454.95 1430.28 454.95 1438.67 455.37C1447.07 455.79 1454.63 459.569 1461.35 466.707C1467.23 472.586 1470.69 478.884 1471.74 485.602C1472.79 492.32 1472.16 498.829 1469.85 505.127C1467.54 511.425 1463.76 516.884 1458.51 521.503C1453.27 526.122 1446.86 529.271 1439.3 530.95C1443.5 545.646 1447.18 560.657 1450.33 575.983C1453.48 591.309 1456.1 606.74 1458.2 622.276L1458.2 626.685ZM1329.71 455.37C1321.73 436.475 1313.23 417.685 1304.2 399C1295.18 380.315 1284.99 362.575 1273.66 345.779C1265.26 364.254 1257.39 382.624 1250.04 400.89C1242.69 419.155 1235.87 437.735 1229.57 456.63C1249.3 456.21 1266.62 456 1281.53 456C1296.44 456 1312.5 455.79 1329.71 455.37Z"/>
<path d="M1742.88 583.856C1752.54 588.475 1759.89 594.354 1764.93 601.492C1769.97 608.63 1772.38 615.873 1772.17 623.221C1771.96 630.569 1769.23 637.497 1763.98 644.006C1758.73 650.514 1750.65 655.448 1739.73 658.807C1735.54 660.066 1729.66 660.801 1722.1 661.011C1714.54 661.221 1704.04 661.326 1690.61 661.326C1677.17 661.326 1660.17 661.326 1639.59 661.326C1619.02 661.326 1593.61 661.536 1563.38 661.956C1555.82 662.376 1548.06 662.586 1540.08 662.586C1532.1 662.586 1525.17 659.856 1519.29 654.398C1514.25 650.199 1510.58 643.796 1508.27 635.188C1505.96 626.58 1504.49 617.552 1503.86 608.105C1503.23 598.657 1503.02 589.21 1503.23 579.762C1503.44 570.315 1503.55 562.442 1503.55 556.144C1503.55 543.547 1503.65 529.061 1503.86 512.685C1504.07 496.309 1504.28 479.619 1504.49 462.613C1504.7 445.608 1504.81 428.917 1504.81 412.541C1504.81 396.166 1504.81 381.68 1504.81 369.083C1504.81 346.829 1505.02 328.878 1505.44 315.232C1505.86 301.586 1506.8 290.878 1508.27 283.11C1509.74 275.343 1512.15 269.674 1515.51 266.105C1518.87 262.536 1523.49 259.492 1529.37 256.972C1534.41 254.873 1539.97 254.138 1546.06 254.768C1552.15 255.398 1557.82 257.077 1563.07 259.807C1568.31 262.536 1572.72 266.315 1576.29 271.144C1579.86 275.972 1581.65 281.326 1581.65 287.204C1582.49 337.591 1582.49 387.558 1581.65 437.105C1580.81 486.652 1580.39 536.199 1580.39 585.746C1606.84 585.746 1633.19 585.431 1659.43 584.801C1685.67 584.171 1712.23 583.436 1739.1 582.597L1742.88 583.856Z"/>
</g>
</g>
</svg>
