<?xml version="1.0" encoding="UTF-8" standalone="no"?>
<!DOCTYPE svg PUBLIC "-//W3C//DTD SVG 1.1//EN" "http://www.w3.org/Graphics/SVG/1.1/DTD/svg11.dtd">
<!-- Created with Vectornator (http://vectornator.io/) -->
<svg height="100%" stroke-miterlimit="10" style="fill-rule:nonzero;clip-rule:evenodd;stroke-linecap:round;stroke-linejoin:round;" version="1.1" viewBox="0 0 512 200" width="100%" xml:space="preserve" xmlns="http://www.w3.org/2000/svg" xmlns:vectornator="http://vectornator.io" xmlns:xlink="http://www.w3.org/1999/xlink">
<defs>
<filter color-interpolation-filters="sRGB" filterUnits="userSpaceOnUse" height="165.988" id="Filter" width="519.517" x="1.5475" y="20.1169">
<feDropShadow dx="3.72474" dy="5.0723" flood-color="#000000" flood-opacity="0.333" in="SourceGraphic" result="Shadow" stdDeviation="6.70641"/>
</filter>
</defs>
<clipPath id="ArtboardFrame">
<rect height="200" width="512" x="0" y="0"/>
</clipPath>
<g clip-path="url(#ArtboardFrame)" id="图层-1" vectornator:layerName="图层 1">
<g fill="#84bae0" filter="url(#Filter)" stroke="none" vectornator:shadowAngle="0.9374" vectornator:shadowColor="#000000" vectornator:shadowOffset="6.293" vectornator:shadowOpacity="0.333" vectornator:shadowRadius="13.4128">
<path d="M86.0624 133.162C88.3383 133.288 90.3298 133.889 92.0368 134.964C93.7437 136.039 95.1346 137.335 96.2093 138.852C97.2841 140.369 97.9163 142.108 98.106 144.068C98.2956 146.027 97.8847 148.019 96.8731 150.042C96.4938 150.927 95.7036 151.97 94.5024 153.171C93.3012 154.373 92.1948 155.1 91.1833 155.352C83.091 157.755 74.7775 159.241 66.2426 159.81C57.7078 160.379 49.2679 160.22 40.9227 159.335C38.5203 159.083 35.8966 158.83 33.0517 158.577C30.2068 158.324 27.7095 157.502 25.56 156.111C21.6403 153.582 19.6805 149.979 19.6805 145.3L19.6805 64.5041C18.2896 63.4926 17.1517 62.2282 16.2666 60.7109C15.3815 59.1936 14.8441 57.5814 14.6544 55.8745C14.4648 54.1675 14.6861 52.5238 15.3183 50.9433C15.9505 49.3627 17.0252 48.0035 18.5425 46.8655C21.0714 44.8425 23.9795 43.4832 27.267 42.7878C30.5545 42.0923 33.7787 41.4917 36.9398 40.986C43.5148 39.9744 50.0897 39.4687 56.6647 39.4687C63.2397 39.4687 69.9411 39.4055 76.7689 39.279C78.792 39.279 81.1312 39.121 83.7864 38.8049C86.4417 38.4888 88.7809 38.71 90.8039 39.4687C93.2063 40.3538 95.103 41.7446 96.4938 43.6413C97.8847 45.5379 98.7066 47.5609 98.9594 49.7105C99.2123 51.86 98.8014 53.9463 97.7266 55.9693C96.6519 57.9924 94.7869 59.5729 92.1316 60.7109C88.9705 61.9753 85.5882 62.5443 81.9846 62.4178C78.381 62.2914 74.9355 62.2282 71.648 62.2282C66.8432 62.2282 62.0385 62.2914 57.2337 62.4178C52.4289 62.5443 47.6241 62.9236 42.8193 63.5558L42.8193 89.9189C47.3712 90.1718 51.9231 90.1718 56.475 89.9189C61.0269 89.666 65.5788 89.3499 70.1307 88.9706C72.1538 88.8442 74.1769 88.6545 76.1999 88.4016C78.223 88.1487 80.3093 88.1487 82.4588 88.4016C85.2405 88.7809 87.39 89.9189 88.9073 91.8155C90.4246 93.7122 91.3413 95.8301 91.6574 98.1692C91.9735 100.508 91.5626 102.816 90.4246 105.092C89.2866 107.368 87.4532 109.012 84.9244 110.023C82.7749 110.908 79.8667 111.572 76.1999 112.015C72.5331 112.457 68.6767 112.773 64.6305 112.963C60.5844 113.153 56.6015 113.247 52.6818 113.247C48.7621 113.247 45.4746 113.184 42.8193 113.058L42.8193 136.386C49.7736 137.271 56.7911 137.398 63.8719 136.766C70.9526 136.133 77.9069 134.932 84.7347 133.162L86.0624 133.162Z"/>
<path d="M139.168 151.939C138.789 155.1 137.461 157.692 135.185 159.715C132.909 161.738 130.443 163.034 127.788 163.603C125.133 164.172 122.699 163.887 120.486 162.749C118.273 161.611 117.104 159.335 116.977 155.921C116.345 141.381 116.029 126.303 116.029 110.687C116.029 95.0714 116.029 79.5507 116.029 64.1248C114.006 63.3662 112.489 62.2282 111.477 60.7109C110.466 59.1936 109.865 57.5182 109.675 55.6848C109.486 53.8514 109.707 51.9864 110.339 50.0898C110.971 48.1932 111.92 46.5494 113.184 45.1586C114.575 43.6413 116.472 42.2504 118.874 40.986C121.276 39.7216 123.9 38.552 126.745 37.4772C129.59 36.4025 132.403 35.4858 135.185 34.7271C137.967 33.9685 140.306 33.3995 142.202 33.0202C150.168 31.3764 158.197 31.408 166.29 33.115C174.382 34.8219 181.494 37.8882 187.627 42.3136C193.759 46.7391 198.343 52.4922 201.377 59.5729C204.412 66.6536 204.728 74.7459 202.326 83.8497C201.567 86.3785 200.619 88.9074 199.481 91.4362C198.343 93.965 197.015 96.3042 195.498 98.4537C193.348 101.741 190.819 104.649 187.911 107.178C185.003 109.707 181.842 112.046 178.428 114.196C180.83 116.725 183.106 119.38 185.256 122.162C187.405 124.943 189.808 127.472 192.463 129.748C193.475 130.633 194.96 132.024 196.92 133.921C198.88 135.817 200.777 137.84 202.61 139.99C204.443 142.139 206.056 144.257 207.446 146.344C208.837 148.43 209.469 150.168 209.343 151.559C209.217 153.962 208.553 156.143 207.352 158.103C206.15 160.062 204.696 161.58 202.989 162.654C201.282 163.729 199.417 164.267 197.394 164.267C195.371 164.267 193.348 163.571 191.325 162.18C189.049 160.41 186.9 158.324 184.877 155.921C182.853 153.519 180.894 151.306 178.997 149.283C174.824 144.731 170.747 140.148 166.764 135.533C162.781 130.918 158.703 126.397 154.531 121.972C152.002 122.478 149.441 122.825 146.849 123.015C144.257 123.205 141.697 123.426 139.168 123.679L139.168 150.611L139.168 151.939ZM173.117 60.1419C168.06 57.1073 162.528 55.4003 156.522 55.021C150.516 54.6417 144.731 55.4636 139.168 57.4866L139.168 100.35C144.858 99.971 150.453 99.244 155.953 98.1692C161.453 97.0945 166.543 94.7237 171.221 91.0569C173.75 89.0338 175.804 86.663 177.385 83.9445C178.965 81.226 179.914 78.4443 180.23 75.5994C180.546 72.7545 180.167 69.9727 179.092 67.2542C178.017 64.5357 176.026 62.165 173.117 60.1419Z"/>
<path d="M275.346 136.766C278.633 136.892 281.352 137.872 283.501 139.705C285.651 141.539 287.041 143.657 287.674 146.059C288.306 148.461 288.116 150.832 287.105 153.171C286.093 155.511 284.007 157.312 280.846 158.577C278.57 159.462 275.883 160.031 272.785 160.284C269.687 160.537 266.589 160.631 263.492 160.568C260.394 160.505 257.517 160.379 254.862 160.189C252.207 159.999 250.184 159.904 248.793 159.904L237.603 159.904C234.947 159.904 232.672 159.177 230.775 157.723C228.878 156.269 227.519 154.531 226.697 152.508C225.875 150.484 225.686 148.335 226.128 146.059C226.571 143.783 227.74 141.697 229.637 139.8C231.407 138.03 233.746 137.018 236.654 136.766C239.563 136.513 242.471 136.513 245.379 136.766L245.379 61.6592C242.471 61.6592 239.752 61.6276 237.223 61.5644C234.695 61.5011 232.166 60.5844 229.637 58.8143C227.74 57.4234 226.476 55.8113 225.844 53.9779C225.211 52.1445 225.117 50.3111 225.559 48.4776C226.002 46.6442 226.855 44.9057 228.12 43.2619C229.384 41.6182 230.965 40.417 232.861 39.6583C234.631 38.8997 236.465 38.5204 238.361 38.5204C244.81 38.5204 251.29 38.4888 257.802 38.4255C264.314 38.3623 270.857 38.3939 277.432 38.5204C278.064 38.5204 278.665 38.71 279.234 39.0894C279.803 39.4687 280.403 39.7848 281.035 40.0377C283.944 41.6814 285.903 44.0206 286.915 47.0552C287.927 50.0898 287.547 53.0612 285.777 55.9693C284.892 57.4866 283.786 58.6562 282.458 59.4781C281.13 60.2999 279.676 60.8689 278.096 61.185C276.515 61.5011 274.903 61.6592 273.259 61.6592C271.616 61.6592 270.035 61.6592 268.518 61.6592L268.518 137.145C269.529 137.145 270.446 137.113 271.268 137.05C272.09 136.987 273.006 136.892 274.018 136.766L275.346 136.766Z"/>
<path d="M406.023 151.18C405.644 153.962 404.695 156.332 403.178 158.292C401.661 160.252 399.922 161.611 397.962 162.37C396.003 163.129 393.916 163.223 391.704 162.654C389.491 162.085 387.436 160.6 385.54 158.197C383.896 156.174 382.979 153.93 382.789 151.464C382.6 148.999 382.252 146.565 381.746 144.162C380.482 137.208 378.648 130.064 376.246 122.731C368.407 122.857 360.63 122.92 352.918 122.92C345.205 122.92 337.492 122.983 329.779 123.11C328.641 126.397 327.661 129.748 326.839 133.162C326.017 136.576 325.227 139.927 324.468 143.214C323.836 145.743 323.267 148.367 322.761 151.085C322.255 153.804 321.117 156.174 319.347 158.197C317.198 160.726 314.89 162.149 312.425 162.465C309.959 162.781 307.746 162.37 305.786 161.232C303.827 160.094 302.246 158.355 301.045 156.016C299.844 153.677 299.433 150.99 299.812 147.956C300.191 144.036 300.95 140.179 302.088 136.386C303.226 132.593 304.301 128.8 305.312 125.006C311.002 103.259 318.336 82.206 327.313 61.8489C328.072 60.0787 328.862 58.3717 329.684 56.728C330.506 55.0842 331.296 53.4405 332.055 51.7967C332.94 50.0266 333.825 48.1299 334.71 46.1069C335.595 44.0838 336.638 42.2188 337.839 40.5118C339.041 38.8049 340.463 37.3508 342.107 36.1496C343.751 34.9484 345.774 34.3478 348.176 34.3478C351.337 34.3478 353.992 35.3593 356.142 37.3824C364.74 45.9804 371.821 55.6848 377.384 66.4956C382.947 77.3064 387.942 88.3384 392.367 99.5917C395.023 99.4653 397.615 99.4653 400.144 99.5917C402.672 99.7181 404.948 100.856 406.971 103.006C408.742 104.776 409.785 106.672 410.101 108.695C410.417 110.719 410.227 112.678 409.532 114.575C408.836 116.472 407.698 118.115 406.118 119.506C404.537 120.897 402.609 121.845 400.333 122.351C401.598 126.777 402.704 131.297 403.652 135.912C404.601 140.527 405.391 145.174 406.023 149.852L406.023 151.18ZM367.332 99.5917C364.93 93.9018 362.369 88.2436 359.651 82.6169C356.932 76.9902 353.866 71.6481 350.452 66.5904C347.923 72.1539 345.552 77.6857 343.34 83.1859C341.127 88.6861 339.072 94.2811 337.176 99.971C343.118 99.8446 348.334 99.7814 352.823 99.7814C357.311 99.7814 362.148 99.7181 367.332 99.5917Z"/>
<path d="M491.751 138.283C494.659 139.674 496.871 141.444 498.389 143.593C499.906 145.743 500.633 147.924 500.57 150.137C500.507 152.349 499.685 154.436 498.104 156.396C496.524 158.355 494.09 159.841 490.802 160.853C489.538 161.232 487.768 161.453 485.492 161.517C483.216 161.58 480.055 161.611 476.009 161.611C471.962 161.611 466.842 161.611 460.646 161.611C454.45 161.611 446.8 161.675 437.697 161.801C435.421 161.927 433.082 161.991 430.679 161.991C428.277 161.991 426.191 161.169 424.42 159.525C422.903 158.261 421.797 156.332 421.101 153.74C420.406 151.148 419.963 148.43 419.774 145.585C419.584 142.74 419.521 139.895 419.584 137.05C419.647 134.205 419.679 131.834 419.679 129.938C419.679 126.144 419.71 121.782 419.774 116.851C419.837 111.92 419.9 106.894 419.963 101.773C420.026 96.6519 420.058 91.6259 420.058 86.6946C420.058 81.7634 420.058 77.4012 420.058 73.6079C420.058 66.9065 420.121 61.5011 420.248 57.3918C420.374 53.2824 420.659 50.0582 421.101 47.719C421.544 45.3798 422.271 43.6729 423.282 42.5981C424.294 41.5234 425.685 40.6067 427.455 39.848C428.972 39.2158 430.648 38.9945 432.481 39.1842C434.314 39.3738 436.021 39.8796 437.602 40.7015C439.182 41.5234 440.51 42.6613 441.585 44.1154C442.66 45.5695 443.197 47.1816 443.197 48.9518C443.45 64.1248 443.45 79.1714 443.197 94.0915C442.944 109.012 442.818 123.932 442.818 138.852C450.783 138.852 458.718 138.757 466.62 138.567C474.523 138.378 482.52 138.156 490.613 137.904L491.751 138.283Z"/>
</g>
</g>
</svg>
