<?xml version="1.0" encoding="UTF-8" standalone="no"?>
<!DOCTYPE svg PUBLIC "-//W3C//DTD SVG 1.1//EN" "http://www.w3.org/Graphics/SVG/1.1/DTD/svg11.dtd">
<!-- Created with Vectornator (http://vectornator.io/) -->
<svg height="100%" stroke-miterlimit="10" style="fill-rule:nonzero;clip-rule:evenodd;stroke-linecap:round;stroke-linejoin:round;" version="1.1" viewBox="0 0 1024 1024" width="100%" xml:space="preserve" xmlns="http://www.w3.org/2000/svg" xmlns:vectornator="http://vectornator.io" xmlns:xlink="http://www.w3.org/1999/xlink">
<defs/>
<g id="图层-1" vectornator:layerName="图层 1">
<path d="M111.081 799.955C102.997 796.622 99.1627 787.379 102.49 779.309L409.855 33.7538C413.182 25.6842 422.416 21.829 430.5 25.1618L912.919 224.045C921.003 227.378 924.837 236.621 921.51 244.691L897.403 303.166C894.077 311.235 884.842 315.09 876.758 311.758L533.218 170.129C529.197 168.471 524.558 170.39 522.895 174.425L432.493 393.706C430.83 397.74 432.769 402.371 436.789 404.028L736.473 527.577C744.558 530.91 748.392 540.153 745.065 548.223L720.958 606.698C717.631 614.767 708.397 618.622 700.313 615.29L400.629 491.741C396.609 490.083 391.969 492.002 390.306 496.037L281.824 759.174C280.161 763.209 282.1 767.839 286.12 769.497L629.66 911.126C637.744 914.459 641.579 923.702 638.252 931.771L614.145 990.246C610.818 998.316 601.584 1002.17 593.5 998.838L111.081 799.955Z" fill="#85cbf8" fill-rule="nonzero" opacity="1" stroke="#659cb1" stroke-linecap="butt" stroke-linejoin="round" stroke-width="0"/>
<path d="M411.266 37.2601L103.448 783.912C146.025 801.071 194.534 780.775 212.06 738.263L456.144 146.204C473.676 103.679 453.55 55.086 411.266 37.2601Z" fill="#9fddff" fill-rule="nonzero" opacity="1" stroke="#659cb1" stroke-linecap="butt" stroke-linejoin="round" stroke-width="0"/>
<path d="M906.892 238.664L882.785 297.139L539.244 155.51C527.14 150.52 513.266 156.293 508.276 168.398L417.875 387.679C412.884 399.783 418.658 413.657 430.763 418.647L730.447 542.196L706.34 600.671L406.655 477.122C394.551 472.132 380.677 477.906 375.687 490.01L267.205 753.147C262.215 765.251 267.989 779.125 280.093 784.115L623.634 925.745L599.526 984.219L234.058 833.55L204.821 821.497L117.108 785.336L424.474 39.7806L512.186 75.9412L541.423 87.9947L906.892 238.664M918.945 209.427L553.477 58.7572L524.239 46.7037L436.527 10.5431C420.373 3.88351 401.896 11.5733 395.236 27.727L87.8708 773.282C81.2112 789.436 88.901 807.914 105.055 814.573L192.767 850.734L222.005 862.788L587.473 1013.46C603.627 1020.12 622.104 1012.43 628.764 996.273L652.871 937.798C659.531 921.644 651.841 903.167 635.687 896.507L299.456 757.891L401.911 509.373L694.286 629.908C710.44 636.568 728.917 628.878 735.577 612.724L759.684 554.249C766.344 538.096 758.654 519.618 742.5 512.958L450.125 392.423L534.5 187.761L870.731 326.376C886.885 333.036 905.363 325.346 912.022 309.192L936.129 250.718C942.789 234.564 935.099 216.086 918.945 209.427L918.945 209.427Z" fill="#8d6c9f" fill-rule="nonzero" opacity="1" stroke="#659cb1" stroke-linecap="butt" stroke-linejoin="round" stroke-width="0"/>
<path d="M422.681 210.075C414.597 206.742 410.762 197.499 414.089 189.429L438.196 130.955C441.523 122.885 450.757 119.03 458.841 122.363C466.926 125.695 470.76 134.939 467.433 143.008L443.326 201.483C439.999 209.553 430.765 213.408 422.681 210.075ZM350.36 385.5C342.275 382.167 338.441 372.924 341.768 364.854L389.982 247.904C393.308 239.835 402.543 235.98 410.627 239.312C418.711 242.645 422.546 251.888 419.219 259.958L371.005 376.908C367.678 384.977 358.444 388.833 350.36 385.5ZM421.66 585.928C418.334 593.998 422.183 603.247 430.252 606.574L459.49 618.627C467.559 621.954 476.809 618.105 480.135 610.035C483.462 601.966 479.613 592.716 471.543 589.39L442.306 577.336C434.236 574.009 424.987 577.859 421.66 585.928ZM391.527 659.022C388.2 667.091 392.049 676.34 400.119 679.667L429.356 691.721C437.426 695.048 446.675 691.198 450.002 683.129C453.328 675.059 449.479 665.81 441.41 662.483L412.172 650.43C404.103 647.103 394.853 650.952 391.527 659.022ZM361.393 732.115C358.066 740.185 361.915 749.434 369.985 752.761L399.222 764.814C407.292 768.141 416.541 764.292 419.868 756.223C423.194 748.153 419.345 738.904 411.276 735.577L382.038 723.523C373.969 720.197 364.719 724.046 361.393 732.115Z" fill="#8d6c9f" fill-rule="nonzero" opacity="1" stroke="#659cb1" stroke-linecap="butt" stroke-linejoin="round" stroke-width="0"/>
</g>
</svg>
